<?xml version="1.0" encoding="UTF-8"?><svg id="Layer_1" xmlns="http://www.w3.org/2000/svg" viewBox="0 0 640 452"><defs><style>.cls-1,.cls-2,.cls-3,.cls-4,.cls-5,.cls-6,.cls-7,.cls-8,.cls-9,.cls-10,.cls-11,.cls-12,.cls-13,.cls-14{stroke:#000;stroke-width:1.01px;}.cls-1,.cls-2,.cls-3,.cls-4,.cls-5,.cls-6,.cls-8,.cls-9,.cls-10,.cls-11{stroke-miterlimit:10;}.cls-1,.cls-15{fill:#202020;}.cls-2,.cls-14{fill:#e1e1dd;}.cls-3,.cls-8,.cls-12{fill:#a0a09e;}.cls-4,.cls-9,.cls-16{fill:#fff;}.cls-5,.cls-13,.cls-17{fill:#e2e2de;}.cls-6,.cls-18{fill:#f1f1ef;}.cls-7,.cls-10,.cls-11{fill:none;}.cls-8,.cls-9,.cls-11{stroke-linecap:round;}.cls-12,.cls-13,.cls-14{stroke-linejoin:round;}.cls-15,.cls-16,.cls-17,.cls-18{stroke-width:0px;}</style></defs><rect class="cls-18" x="0" width="640" height="452"/><path class="cls-10" d="m228.56,188.05l-4.41,3.28c-9.07,6.75-4.43,17.64-15.3,25.73-13.24,9.85-21.09,1.35-32.61,9.92-11.52,8.57-3.43,16.9-13.73,24.56-3.42,2.55-7.27,4.51-11.6,4.76-3.76.21-6.96.04-10.21.83-1.36.33-2.73.83-4.15,1.59"/><path class="cls-10" d="m240.3,212.26l-4.41,3.28c-6.07,10.98,10.26,37.39-.61,45.47-13.24,9.85-31.64-12.83-43.16-4.26-11.53,8.57-3.43,16.9-13.73,24.56-4.08,3.04-8.93,3.78-13.88,2.71-6.74-1.45-12.77-6.59-19.21-9.1"/><rect class="cls-16" x="214.82" y="175.48" width="43.34" height="82.37" rx="4.75" ry="4.75"/><rect class="cls-10" x="214.82" y="175.48" width="43.34" height="82.37" rx="4.75" ry="4.75"/><rect class="cls-16" x="286.05" y="140.8" width="43.34" height="117.06" rx="4.75" ry="4.75"/><rect class="cls-10" x="286.05" y="140.8" width="43.34" height="117.06" rx="4.75" ry="4.75"/><rect class="cls-16" x="357.27" y="111.31" width="43.34" height="146.54" rx="4.75" ry="4.75"/><rect class="cls-10" x="357.27" y="111.31" width="43.34" height="146.54" rx="4.75" ry="4.75"/><rect class="cls-16" x="428.5" y="39.74" width="43.34" height="218.11" rx="4.75" ry="4.75"/><rect class="cls-10" x="428.5" y="39.74" width="43.34" height="218.11" rx="4.75" ry="4.75"/><path class="cls-4" d="m458.1,168.64c-6.02-7.43-10.91-13.78-13.15-18.44-11.46-23.87-7.66-35.37-20.52-41.1-12.64-5.63-20.88-1.76-29.46,0-9.07,1.87-21,17.54-14.85,34.85.18.52.36,1.03.53,1.55-.77,3.13-1.71,7.5-2.18,11.63-.29,2.56,2.58,4.24,4.62,2.7l.78-.59c2.01,11.43,3.03,21.05,10.96,24.11,11.32,4.36,25.52-15.83,25.52-15.83l8.52,19.71,29.24-18.58h0Z"/><path class="cls-5" d="m314.76,289.12h-23.48v37.84h23.48v-37.84Z"/><path class="cls-10" d="m465.77,233.85l-24.84,38.95"/><path class="cls-10" d="m394.14,155.61c0,.08-.07,8.21-9.11,10.28"/><path class="cls-16" d="m408.31,132.14s4.34-8.19,10.39-5.2c7.67,3.8,3.1,13.55,0,15.28"/><path class="cls-10" d="m408.31,132.14s4.34-8.19,10.39-5.2c7.67,3.8,3.1,13.55,0,15.28"/><path class="cls-17" d="m524.45,326.96c0-38.3-14.66-76.46-28.16-104.74-9.04-18.95-25.97-38.5-38.2-53.59,0,0-21.47,0-29.24,18.58,0,0-5.68,4.81-19.87,27.89-14.2,23.08-37.38,61.55-37.38,61.55h-49.11c-8.69,0-15.73,7.15-15.73,15.98v34.34h70.84c16.98,0,32.86-8.55,42.39-22.82l20.93-31.34"/><path class="cls-10" d="m524.45,326.96c0-38.3-14.66-76.46-28.16-104.74-9.04-18.95-25.97-38.5-38.2-53.59,0,0-21.47,0-29.24,18.58,0,0-5.68,4.81-19.87,27.89-14.2,23.08-37.38,61.55-37.38,61.55h-49.11c-8.69,0-15.73,7.15-15.73,15.98v34.34h70.84c16.98,0,32.86-8.55,42.39-22.82l20.93-31.34"/><path class="cls-4" d="m244.15,283.56c-9.7-3.69-20.88-13.94-24.56-17.48-.8-.77-2.1-.7-2.77.19-2.18,2.91-3.74,10.62,18.71,25.74l8.62-8.44Z"/><path class="cls-4" d="m234.22,285.38l-15.94,15.42c-1.08,1.05-.95,2.82.25,3.72,2.06,1.54,5.65,2.85,10.48-.57,7.9-5.58,5.21-18.57,5.21-18.57Z"/><path class="cls-4" d="m274.16,326.97c-16.46,0-43.07-13.96-36.14-20.87,4.33-4.32,22.31,13.38,22.31,13.38l13.83,7.49Z"/><path class="cls-4" d="m274.16,289.12c-11.5,0-20.15-1.2-30.01-5.57-4.67-2.07-10.1.21-12.07,4.98l-7.76,18.72c-.66,1.59.4,3.39,2.09,3.53,3.1.25,8.23-2.25,13.71-17.15l5.63,3.76s1.21,29.58,28.41,29.58v-37.84h0Z"/><path class="cls-4" d="m288.37,283.27h-11.3c-1.61,0-2.91,1.3-2.91,2.91v.05c0,1.61,1.3,2.91,2.91,2.91h11.3c1.61,0,2.91-1.3,2.91-2.91v-.05c0-1.61-1.3-2.91-2.91-2.91Z"/><path class="cls-5" d="m282.72,283.27c-1.59,0-2.89,1.32-2.89,2.93s1.3,2.93,2.89,2.93,2.89-1.32,2.89-2.93-1.3-2.93-2.89-2.93Z"/><path class="cls-4" d="m291.28,289.12h-17.12v37.84h17.12v-37.84Z"/><path class="cls-10" d="m291.28,298.63h15.49"/><path class="cls-10" d="m291.28,308.04h15.49"/><path class="cls-10" d="m291.28,317.59h15.49"/><path class="cls-5" d="m428.91,187.23c8.05-7.99,21.14-16.76,29.19-18.59l-8.28-10.65s-17.31,7.56-26.11,17.32c-3.13,3.47-3.87,6.53-3.51,9.01.6,4.23,5.7,5.89,8.71,2.91Z"/><path class="cls-10" d="m429.37,170.2l6.12,11.29"/><path class="cls-10" d="m435.82,165.54l6.6,10.8"/><path class="cls-10" d="m442.92,161.39l7.11,10.53"/><path class="cls-10" d="m423.49,174.97l5.55,11.52"/><path class="cls-4" d="m274.15,289.12h17.12v12.6c0,4.73-3.84,8.56-8.56,8.56s-8.56-3.84-8.56-8.56v-12.6h0Z"/><path class="cls-13" d="m158.11,315.18l-22.71-72.68-11.62,3.83,26.4,80.65h99.41v-11.81h-91.48Z"/><path class="cls-7" d="m440.26,273.75l25.84,14.09"/><polygon class="cls-18" points="510.82 246.08 495.29 284.77 460.69 288.49 503.84 359.93 560.04 342.78 547.63 282.34 510.82 246.08"/><path class="cls-6" d="m154.33,146.32l36.22,48.06c-26.54,20-64.28,14.7-84.28-11.84-20-26.54-14.7-64.28,11.84-84.28,10.83-8.16,22.66-12.12,36.22-12.12v60.18Z"/><path class="cls-14" d="m154.33,146.32l60.17-1.05c.35,20.01-7.97,37.07-23.95,49.11l-36.22-48.06Z"/><path class="cls-12" d="m154.33,146.32v-60.18c32.87,0,59.6,26.26,60.17,59.13l-60.17,1.05Z"/><path class="cls-11" d="m256.08,121.32h-101.8"/><path class="cls-11" d="m247.75,103.74h-93.47"/><path class="cls-11" d="m273.03,86.15h-118.75"/><path class="cls-11" d="m300.59,68.56h-146.3"/><path class="cls-11" d="m340.79,50.96h-186.5"/><path class="cls-9" d="m238.42,55.63c2.59,0,4.69-2.09,4.69-4.68s-2.1-4.68-4.69-4.68-4.69,2.09-4.69,4.68,2.1,4.68,4.69,4.68Z"/><path class="cls-9" d="m207.72,73.23c2.59,0,4.69-2.09,4.69-4.68s-2.1-4.68-4.69-4.68-4.69,2.09-4.69,4.68,2.1,4.68,4.69,4.68Z"/><path class="cls-8" d="m238.42,90.82c2.59,0,4.69-2.09,4.69-4.68s-2.1-4.67-4.69-4.67-4.69,2.09-4.69,4.67,2.1,4.68,4.69,4.68Z"/><path class="cls-9" d="m193.26,90.82c2.59,0,4.69-2.09,4.69-4.68s-2.1-4.67-4.69-4.67-4.69,2.09-4.69,4.67,2.1,4.68,4.69,4.68Z"/><path class="cls-9" d="m214.25,108.41c2.59,0,4.69-2.09,4.69-4.68s-2.1-4.68-4.69-4.68-4.69,2.09-4.69,4.68,2.1,4.68,4.69,4.68Z"/><path class="cls-9" d="m175.04,108.41c2.59,0,4.69-2.09,4.69-4.68s-2.1-4.68-4.69-4.68-4.69,2.09-4.69,4.68,2.1,4.68,4.69,4.68Z"/><path class="cls-9" d="m226.92,126c2.59,0,4.69-2.09,4.69-4.68s-2.1-4.67-4.69-4.67-4.69,2.09-4.69,4.67,2.1,4.68,4.69,4.68Z"/><path class="cls-9" d="m179.73,55.63c2.59,0,4.69-2.09,4.69-4.68s-2.1-4.68-4.69-4.68-4.69,2.09-4.69,4.68,2.1,4.68,4.69,4.68Z"/><polyline class="cls-10" points="137.57 383.09 193.57 377.06 238.86 408.83 307.03 386.51 361.51 342.71 409.65 340.77 445.48 290.12 495.29 284.77 519.33 224.87"/><path class="cls-4" d="m137.57,386.51c1.9,0,3.43-1.53,3.43-3.42s-1.54-3.42-3.43-3.42-3.43,1.53-3.43,3.42,1.54,3.42,3.43,3.42Z"/><path class="cls-4" d="m193.6,380.4c1.9,0,3.43-1.53,3.43-3.42s-1.54-3.42-3.43-3.42-3.43,1.53-3.43,3.42,1.54,3.42,3.43,3.42Z"/><path class="cls-4" d="m238.88,412.26c1.9,0,3.43-1.53,3.43-3.42s-1.54-3.42-3.43-3.42-3.43,1.53-3.43,3.42,1.54,3.42,3.43,3.42Z"/><path class="cls-4" d="m307.15,389.67c1.9,0,3.43-1.53,3.43-3.42s-1.54-3.42-3.43-3.42-3.43,1.53-3.43,3.42,1.54,3.42,3.43,3.42Z"/><path class="cls-4" d="m361.65,346.1c1.9,0,3.43-1.53,3.43-3.42s-1.54-3.42-3.43-3.42-3.43,1.53-3.43,3.42,1.54,3.42,3.43,3.42Z"/><path class="cls-4" d="m409.63,344.19c1.9,0,3.43-1.53,3.43-3.42s-1.54-3.42-3.43-3.42-3.43,1.53-3.43,3.42,1.54,3.42,3.43,3.42Z"/><path class="cls-4" d="m445.6,293.62c1.9,0,3.43-1.53,3.43-3.42s-1.54-3.42-3.43-3.42-3.43,1.53-3.43,3.42,1.54,3.42,3.43,3.42Z"/><path class="cls-4" d="m495.32,287.91c1.9,0,3.43-1.53,3.43-3.42s-1.54-3.42-3.43-3.42-3.43,1.53-3.43,3.42,1.54,3.42,3.43,3.42Z"/><path class="cls-4" d="m519.33,228.3c1.9,0,3.43-1.53,3.43-3.42s-1.54-3.42-3.43-3.42-3.43,1.53-3.43,3.42,1.54,3.42,3.43,3.42Z"/><circle class="cls-3" cx="534.31" cy="155.71" r="8.31"/><circle class="cls-15" cx="508.38" cy="195.43" r="7.09"/><circle class="cls-4" cx="501.28" cy="156.44" r="5.23"/><circle class="cls-14" cx="450.08" cy="321.96" r="12.28"/><circle class="cls-14" cx="542.87" cy="360.28" r="16.45"/><circle class="cls-14" cx="513.87" cy="332.23" r="16.11"/><circle class="cls-15" cx="503.84" cy="347.08" r="12.85"/><circle class="cls-14" cx="471.59" cy="363.15" r="7.61"/><circle class="cls-14" cx="427.84" cy="392.24" r="11.81"/><circle class="cls-3" cx="472.45" cy="363.13" r="15.46"/><path class="cls-4" d="m472.45,397.76c19.19,0,34.74-15.51,34.74-34.64h-69.48c0,19.13,15.55,34.64,34.74,34.64Z"/><path class="cls-2" d="m472.45,378.54c8.54,0,15.46-6.9,15.46-15.41h-30.92c0,8.51,6.92,15.41,15.46,15.41Z"/><path class="cls-3" d="m472.45,378.54c8.54,0,15.46-6.9,15.46-15.41h-15.46v15.41Z"/><circle class="cls-15" cx="87.05" cy="219.35" r="7.09"/><path class="cls-10" d="m299.28,103.14c-1.14,0-2.18-.19-3.12-.58-.94-.38-1.75-.92-2.44-1.6-.68-.65-1.21-1.44-1.58-2.35-.37-.91-.56-1.91-.56-2.99s.2-2.04.6-2.97c.4-.93.95-1.72,1.67-2.37.68-.65,1.5-1.18,2.44-1.56.94-.38,1.95-.58,3.03-.58s2.05.19,2.99.56c.94.37,1.75.88,2.44,1.54.68.66,1.22,1.43,1.62,2.33.4.9.6,1.89.6,2.97s-.19,2.09-.58,3.01c-.38.93-.92,1.73-1.6,2.41s-1.5,1.22-2.44,1.6c-.94.38-1.97.58-3.08.58Zm16.71-14.7h3.85l-20.3,30.56h-3.85l20.3-30.56Zm-16.67,10.9c.91,0,1.62-.32,2.14-.96.51-.64.77-1.56.77-2.76s-.26-2.04-.77-2.69c-.51-.66-1.23-.98-2.14-.98s-1.64.32-2.18.96c-.54.64-.81,1.55-.81,2.71,0,1.23.27,2.15.81,2.78.54.63,1.27.94,2.18.94Zm16.84,20.13c-1.14,0-2.18-.19-3.12-.58s-1.75-.92-2.44-1.6c-.68-.66-1.21-1.44-1.58-2.35-.37-.91-.56-1.91-.56-2.99s.2-2.08.6-2.99c.4-.91.95-1.71,1.67-2.39.68-.65,1.49-1.18,2.41-1.56.93-.38,1.93-.58,3.01-.58s2.09.19,3.03.56c.94.37,1.75.88,2.44,1.54.68.66,1.22,1.43,1.62,2.33.4.9.6,1.89.6,2.97s-.19,2.09-.58,3.03c-.38.94-.92,1.75-1.6,2.44-.68.68-1.5,1.22-2.44,1.6s-1.97.58-3.08.58Zm0-3.89c.94,0,1.67-.32,2.18-.96.51-.64.77-1.55.77-2.71s-.26-2.07-.77-2.71c-.51-.64-1.24-.96-2.18-.96s-1.63.31-2.16.94c-.53.63-.79,1.54-.79,2.74s.26,2.11.79,2.73c.53.63,1.25.94,2.16.94Z"/><path class="cls-6" d="m525.3,86.77l-30.62-9.95c4.4-13.53,16.4-22.25,30.62-22.25v32.2Z"/><path class="cls-3" d="m525.3,86.77l-21.96,23.55c-9.36-8.73-12.62-21.32-8.66-33.5l30.62,9.95Z"/><path class="cls-6" d="m525.3,86.77v32.2c-8.54,0-15.72-2.83-21.96-8.65l21.96-23.55Z"/><path class="cls-6" d="m525.3,86.77l9.95,30.62c-3.38,1.1-6.39,1.58-9.95,1.58v-32.2Z"/><path class="cls-6" d="m525.3,86.77l26.05,18.93c-4.18,5.75-9.33,9.5-16.1,11.7l-9.95-30.62Z"/><path class="cls-6" d="m525.3,86.77l26.05-18.93c8.36,11.51,8.36,26.34,0,37.85l-26.05-18.93Z"/><path class="cls-6" d="m525.3,86.77v-32.2c10.67,0,19.78,4.64,26.05,13.27l-26.05,18.93Z"/><circle class="cls-6" cx="525.32" cy="86.77" r="25.19"/><line class="cls-11" x1="477.24" y1="143.76" x2="487.62" y2="143.76"/><line class="cls-11" x1="477.24" y1="139.43" x2="483.42" y2="139.43"/><line class="cls-11" x1="477.24" y1="135.09" x2="483.42" y2="135.09"/><line class="cls-11" x1="477.24" y1="130.76" x2="483.42" y2="130.76"/><line class="cls-11" x1="477.24" y1="126.43" x2="487.62" y2="126.43"/><line class="cls-11" x1="477.24" y1="122.09" x2="483.42" y2="122.09"/><line class="cls-11" x1="477.24" y1="117.76" x2="483.42" y2="117.76"/><line class="cls-11" x1="477.24" y1="113.42" x2="483.42" y2="113.42"/><line class="cls-11" x1="477.24" y1="109.09" x2="487.62" y2="109.09"/><line class="cls-11" x1="477.24" y1="91.75" x2="487.62" y2="91.75"/><line class="cls-11" x1="477.24" y1="104.75" x2="483.42" y2="104.75"/><line class="cls-11" x1="477.24" y1="100.42" x2="483.42" y2="100.42"/><line class="cls-11" x1="477.24" y1="96.09" x2="483.42" y2="96.09"/><line class="cls-11" x1="477.24" y1="74.42" x2="487.62" y2="74.42"/><line class="cls-11" x1="477.24" y1="87.42" x2="483.42" y2="87.42"/><line class="cls-11" x1="477.24" y1="83.08" x2="483.42" y2="83.08"/><line class="cls-11" x1="477.24" y1="78.75" x2="483.42" y2="78.75"/><line class="cls-11" x1="477.24" y1="57.08" x2="487.62" y2="57.08"/><line class="cls-11" x1="477.24" y1="70.08" x2="483.42" y2="70.08"/><line class="cls-11" x1="477.24" y1="65.75" x2="483.42" y2="65.75"/><line class="cls-11" x1="477.24" y1="61.41" x2="483.42" y2="61.41"/><line class="cls-11" x1="477.24" y1="39.74" x2="487.62" y2="39.74"/><line class="cls-11" x1="477.24" y1="52.75" x2="483.42" y2="52.75"/><line class="cls-11" x1="477.24" y1="48.41" x2="483.42" y2="48.41"/><line class="cls-11" x1="477.24" y1="44.08" x2="483.42" y2="44.08"/><circle class="cls-4" cx="205.18" cy="283.27" r="5.23"/><circle class="cls-15" cx="525.32" cy="86.77" r="11.02"/><path class="cls-1" d="m463.17,149.91c2.92,1.76,11.57,8.43-2.47,13.44-14.05,5-25.21,7.94-33.94,8.53-3.72.25-10.39-.42-12.09-8.75-1.7-8.33,2.16-15.54,2.16-15.54,0,0-16.88-3.38-20.99-5.48-20.98-10.7-19.67-15.48-17.14-21.97,2.84-7.29,12.78-15.52,25.24-15.99,6.8-.26,32.72-2.43,44.62,26.26,2.9,6.99,7.62,15.27,14.62,19.49Z"/></svg>